<svg id="ewjsmcLMJTi1" xmlns="http://www.w3.org/2000/svg" xmlns:xlink="http://www.w3.org/1999/xlink" viewBox="0 0 300 300" shape-rendering="geometricPrecision" text-rendering="geometricPrecision"><polygon points="0,-64.162145 61.021826,-19.827193 37.713562,51.908265 -37.713562,51.908265 -61.021826,-19.827193 0,-64.162145" transform="matrix(-.618643 1.174159-1.174162-.618645 144.579424 147.143998)" stroke="#fff"/><line x1="0" y1="53.697769" x2="0" y2="-53.697769" transform="translate(128.50786 168.885977)" fill="none" stroke="#fff"/><line x1="43.649785" y1="35.903162" x2="-43.649785" y2="-35.903162" transform="translate(172.157645 150.934396)" fill="none" stroke="#fff"/><line x1="-10.805783" y1="-17.873094" x2="10.805783" y2="17.873094" transform="translate(117.702077 97.15814)" fill="none" stroke="#fff"/><line x1="-29.681149" y1="21.418013" x2="29.68115" y2="-21.418013" transform="matrix(1.000001 0 0 0.992671 98.82671 136.449247)" fill="none" stroke="#fff"/><line x1="38.461585" y1="-10.709007" x2="-38.461585" y2="10.709007" transform="translate(166.969445 104.479202)" fill="none" stroke="#fff"/><ellipse rx="14.485149" ry="14.485149" transform="translate(106.896294 79.285046)" stroke="#fff"/><ellipse rx="14.485149" ry="14.485149" transform="translate(205.43103 93.770195)" stroke="#fff"/><ellipse rx="14.485149" ry="14.485149" transform="translate(215.807429 186.837558)" stroke="#fff"/><ellipse rx="14.485149" ry="14.485149" transform="translate(128.50786 222.583746)" stroke="#fff"/><ellipse rx="14.485149" ry="14.485149" transform="translate(69.145561 157.86726)" stroke="#fff"/><ellipse rx="14.485149" ry="14.485149" transform="translate(132.187226 118.964351)" stroke="#fff"/></svg>
